<?xml version="1.0" encoding="utf-8"?>
<!-- Generator: Adobe Illustrator 28.2.0, SVG Export Plug-In . SVG Version: 6.00 Build 0)  -->
<svg version="1.1" id="Layer_1" xmlns="http://www.w3.org/2000/svg" xmlns:xlink="http://www.w3.org/1999/xlink" x="0px" y="0px"
	 viewBox="0 0 490 132.1" style="enable-background:new 0 0 490 132.1;" xml:space="preserve">
<style type="text/css">
	.st0{fill:#B62026;}
	.st1{fill:#57B847;}
	.st2{fill:#952066;}
	.st3{fill:#6A63AB;}
	.st4{fill:#F9EE5C;}
</style>
<path class="st0" d="M170.7,86.8V45.9h14.7c4.5,0,7.9,0.9,10.4,2.6c2.4,1.7,3.6,4.2,3.6,7.3c0,2.2-0.7,4.1-2,5.7
	c-1.3,1.6-3,2.8-5,3.5v0.1c2.6,0.3,4.7,1.4,6.3,3.1c1.6,1.7,2.4,3.9,2.4,6.4c0,3.7-1.3,6.7-4,8.9c-2.7,2.2-6.3,3.3-10.9,3.3H170.7z
	 M179.6,52.5v10.2h4.1c1.9,0,3.5-0.5,4.6-1.4c1.1-0.9,1.7-2.2,1.7-3.9c0-1.7-0.6-2.9-1.7-3.7c-1.1-0.8-2.8-1.2-5.1-1.2H179.6z
	 M179.6,69.4v10.8h5.1c2.2,0,3.9-0.5,5.1-1.5c1.2-1,1.8-2.4,1.8-4.1c0-1.6-0.6-2.8-1.8-3.8c-1.2-0.9-2.9-1.4-5.1-1.4H179.6z"/>
<path class="st0" d="M218.8,86.8h-8.9V45.9h8.9V86.8z"/>
<path class="st0" d="M230.3,86.8V45.9h14.7c4.5,0,7.9,0.9,10.4,2.6c2.4,1.7,3.6,4.2,3.6,7.3c0,2.2-0.7,4.1-2,5.7
	c-1.3,1.6-3,2.8-5,3.5v0.1c2.6,0.3,4.7,1.4,6.3,3.1c1.6,1.7,2.4,3.9,2.4,6.4c0,3.7-1.3,6.7-4,8.9c-2.7,2.2-6.3,3.3-10.9,3.3H230.3z
	 M239.2,52.5v10.2h4.1c1.9,0,3.5-0.5,4.6-1.4c1.1-0.9,1.7-2.2,1.7-3.9c0-1.7-0.6-2.9-1.7-3.7c-1.1-0.8-2.8-1.2-5.1-1.2H239.2z
	 M239.2,69.4v10.8h5.1c2.2,0,3.9-0.5,5.1-1.5c1.2-1,1.8-2.4,1.8-4.1c0-1.6-0.6-2.8-1.8-3.8c-1.2-0.9-2.9-1.4-5.1-1.4H239.2z"/>
<path class="st0" d="M293.6,86.8h-24.1V45.9h8.9v33.7h15.2V86.8z"/>
<path class="st0" d="M310.1,86.8h-8.9V45.9h8.9V86.8z"/>
<path class="st0" d="M338.3,73.5c0,4.6-1.2,8.1-3.6,10.4c-2.4,2.3-5.8,3.5-10.3,3.5c-1.2,0-2.5-0.1-3.8-0.4
	c-1.3-0.2-2.6-0.7-3.9-1.3l2.7-6.8c0.8,0.4,1.5,0.6,2.1,0.8c0.6,0.2,1.3,0.3,2.1,0.3c1.9,0,3.3-0.5,4.2-1.5c0.9-1,1.4-2.7,1.4-5.1
	l0.2-27.6h8.9L338.3,73.5z"/>
<path class="st0" d="M343.2,86.8l14.9-40.9h10.6l14.6,40.9h-9.8l-2.9-8.7h-15l-2.8,8.7H343.2z M357.6,71.1h11l-4.6-14.5
	c-0.2-0.5-0.3-1-0.4-1.4c-0.1-0.4-0.2-0.9-0.3-1.6H363c-0.1,0.6-0.2,1-0.3,1.5c-0.1,0.4-0.2,0.9-0.4,1.4L357.6,71.1z"/>
<path class="st0" d="M425.8,86.8l-4.9-4.6c-2.3,1.8-4.7,3.2-7,4c-2.3,0.8-5,1.3-8,1.3c-4.7,0-8.6-1.1-11.6-3.4s-4.6-5.5-4.6-9.8
	c0-3,0.9-5.5,2.6-7.4c1.7-1.9,4.1-3.6,7.1-5.1c-1.6-1.7-2.8-3.2-3.5-4.6c-0.7-1.4-1.1-2.9-1.1-4.5c0-3.2,1.2-5.6,3.6-7.3
	c2.4-1.7,5.5-2.6,9.3-2.6c3.7,0,6.6,0.9,8.9,2.6s3.4,4,3.4,6.8c0,2.1-0.6,4-1.8,5.6c-1.2,1.6-3.6,3.2-7.3,4.9l10.3,9.4
	c1.5-1.8,2.5-3.7,3-5.5c0.5-1.9,0.8-3.9,0.8-6.2h8.2c0,3-0.5,5.9-1.5,8.5c-1,2.6-2.7,5.3-5.2,8l10.8,9.8H425.8z M415.9,77.4
	l-11.8-11c-1.4,0.8-2.6,1.8-3.6,2.9c-1,1.2-1.5,2.7-1.5,4.7c0,2,0.7,3.6,2,4.8c1.4,1.2,3.1,1.8,5.3,1.8c1.8,0,3.5-0.2,5-0.7
	C412.8,79.3,414.3,78.5,415.9,77.4z M406.7,58.8c1.8-0.8,3.1-1.6,4-2.4c0.9-0.8,1.3-2,1.3-3.4c0-1.2-0.4-2.2-1.3-2.8s-1.8-1-2.9-1
	c-1.4,0-2.5,0.4-3.4,1.2s-1.3,1.7-1.3,2.8c0,0.9,0.3,1.8,0.9,2.7C404.6,56.6,405.5,57.6,406.7,58.8z"/>
<path class="st0" d="M454.7,89.3c0,3.7-1.1,6.6-3.2,8.8c-2.1,2.2-5.1,3.2-8.8,3.2c-1.1,0-2.3-0.1-3.3-0.2c-1.1-0.2-2.1-0.4-3-0.7
	l2-6.8c0.4,0.2,0.9,0.3,1.5,0.4c0.6,0.1,1.1,0.2,1.7,0.2c1.3,0,2.3-0.4,2.9-1.2c0.7-0.8,1-1.9,1-3.4V55.2h9.2V89.3z M450.2,51
	c-1.6,0-2.9-0.5-3.9-1.4s-1.5-2.2-1.5-3.6s0.5-2.7,1.5-3.6s2.3-1.4,3.9-1.4c1.6,0,2.9,0.5,3.9,1.4s1.5,2.2,1.5,3.6s-0.5,2.7-1.5,3.6
	S451.8,51,450.2,51z"/>
<path class="st0" d="M490,86.8h-8.8v-4.6h-0.1c-1,1.8-2.4,3.1-3.9,4c-1.6,0.9-3.4,1.4-5.4,1.4c-2.8,0-5.2-0.8-7.1-2.5
	c-1.9-1.7-2.9-4-2.9-7c0-2.9,1-5.3,2.9-7.2c1.9-1.8,4.9-3,8.9-3.6l7.7-1.1v-0.6c0-1.6-0.5-2.8-1.5-3.7c-1-0.8-2.4-1.2-4.2-1.2
	c-1.3,0-2.8,0.2-4.3,0.7c-1.6,0.5-3.1,1.2-4.7,2.2l-3.2-5.4c2.1-1.3,4.2-2.2,6.3-2.8c2.1-0.6,4.4-0.9,6.9-0.9c4.6,0,8,1.1,10.2,3.3
	c2.2,2.2,3.3,5.5,3.3,10V86.8z M481.4,74v-2.2l-6,0.8c-1.7,0.2-2.9,0.7-3.8,1.5c-0.8,0.8-1.2,1.8-1.2,3c0,1.2,0.4,2.1,1.2,2.9
	c0.8,0.7,1.9,1.1,3.2,1.1c1.9,0,3.5-0.7,4.7-2C480.8,77.7,481.4,76,481.4,74z"/>
<path class="st1" d="M66.3,34.5c8.9-10.2,21.9-16.7,36.5-16.7c3.3,0,6.6,0.4,9.7,1C100.5,7.2,84.2,0,66.3,0C48.3,0,32,7.2,20.1,18.8
	c3.1-0.6,6.4-1,9.7-1C44.4,17.8,57.4,24.3,66.3,34.5z"/>
<path class="st2" d="M66.3,97.7c-8.9,10.2-21.9,16.7-36.5,16.7c-3.3,0-6.6-0.4-9.7-1C32,125,48.3,132.1,66.3,132.1
	c18,0,34.2-7.2,46.2-18.8c-3.1,0.6-6.4,1-9.7,1C88.1,114.4,75.1,107.9,66.3,97.7z"/>
<path class="st3" d="M97.9,66.1c10.2,8.9,16.7,21.9,16.7,36.5c0,3.3-0.4,6.6-1,9.7c11.6-11.9,18.8-28.2,18.8-46.2
	c0-18-7.2-34.2-18.8-46.2c0.6,3.1,1,6.4,1,9.7C114.5,44.2,108.1,57.2,97.9,66.1z"/>
<path class="st0" d="M78.1,66.1c0,3.7-0.4,7.2-1.2,10.6c7.9-1.8,15.1-5.5,21-10.6c-5.9-5.1-13.1-8.8-21-10.6
	C77.7,58.9,78.1,62.4,78.1,66.1z"/>
<path class="st4" d="M34.7,66.1C24.5,57.2,18,44.2,18,29.6c0-3.3,0.4-6.6,1-9.7C7.4,31.8,0.2,48.1,0.2,66.1c0,18,7.2,34.2,18.8,46.2
	c-0.6-3.1-1-6.4-1-9.7C18,88,24.5,74.9,34.7,66.1z"/>
<path class="st0" d="M55.6,55.5c-7.9,1.8-15.1,5.5-21,10.6c5.9,5.1,13.1,8.8,21,10.6c-0.8-3.4-1.2-7-1.2-10.6
	C54.4,62.4,54.9,58.9,55.6,55.5z"/>
<path class="st0" d="M76.9,55.5c-1.8-7.9-5.5-15.1-10.6-21c-5.1,5.9-8.8,13.1-10.6,21c3.4-0.8,7-1.2,10.6-1.2S73.5,54.7,76.9,55.5z"
	/>
<path class="st0" d="M55.6,76.7c1.8,7.9,5.5,15.1,10.6,21c5.1-5.9,8.8-13.1,10.6-21c-3.4,0.8-7,1.2-10.6,1.2S59.1,77.5,55.6,76.7z"
	/>
<path class="st0" d="M76.9,55.5c-3.4-0.8-7-1.2-10.6-1.2s-7.2,0.4-10.6,1.2c-0.8,3.4-1.2,7-1.2,10.6c0,3.7,0.4,7.2,1.2,10.6
	c3.4,0.8,7,1.2,10.6,1.2s7.2-0.4,10.6-1.2c0.8-3.4,1.2-7,1.2-10.6C78.1,62.4,77.7,58.9,76.9,55.5z"/>
</svg>
